<svg xmlns="http://www.w3.org/2000/svg" viewBox="0 0 128 128" width="800px" height="800px" fill="#000000">
  <!-- Лицо увеличено в 1.8x и опущено вниз -->
  <g transform="translate(64 72) scale(1.7) translate(-64 -64)">
    <path d="M84.13,36.13c-3.52-8.48-10.48-12.82-19.74-13v0h-.78v0c-9.26.22-16.22,4.56-19.74,13-3.63,8.71-4.83,21.77,0,39.19,4.69,17,10.54,20.49,19.74,20.67h.78c9.2-.18,15-3.72,19.74-20.67C89,57.9,87.76,44.84,84.13,36.13Z" fill="#ffffff"/>
    <line x1="77.58" y1="52.83" x2="81.99" y2="52.83" stroke="#393c54" stroke-width="5.51" stroke-linecap="round"/>
    <line x1="46.01" y1="52.83" x2="50.42" y2="52.83" stroke="#393c54" stroke-width="5.51" stroke-linecap="round"/>
    <path d="M68.5,88a30.85,30.85,0,0,1-9,0c-1.25-.33-2.5-1.12-2.5-2.5s1.2-2.13,2.5-2.5a20.4,20.4,0,0,1,9,0c1.21.31,2.5,1.12,2.5,2.5S69.73,87.68,68.5,88Z" fill="#393c54"/>
    <path d="M82.05,58.11a9.91,9.91,0,0,1-5.73-.37" fill="none" stroke="#393c54" stroke-width="2.21" stroke-linecap="round"/>
    <path d="M51.68,57.76a10,10,0,0,1-5.91.29" fill="none" stroke="#393c54" stroke-width="2.21" stroke-linecap="round"/>
    <path d="M75.42,65A3.31,3.31,0,0,1,82,65c0,1.83-3.31,14.33-5.51,14.33C75.42,79.29,75.42,66.79,75.42,65Z" fill="#a7aece"/>
    <path d="M75.37,45A3.31,3.31,0,0,0,82,45c0-1.82-2.59-9.92-4.41-9.92S75.37,43.19,75.37,45Z" fill="#a7aece"/>
    <path d="M52.63,45A3.31,3.31,0,0,1,46,45c0-1.82,2.59-9.92,4.41-9.92S52.63,43.19,52.63,45Z" fill="#a7aece"/>
    <path d="M52.58,65A3.31,3.31,0,0,0,46,65c0,1.83,3.31,14.33,5.51,14.33C52.58,79.29,52.58,66.79,52.58,65Z" fill="#a7aece"/>
    <path d="M68.41,90.32c0,1.22-2,2.21-4.41,2.21s-4.41-1-4.41-2.21c0-.62,2-.27,4.41-.27S68.41,89.7,68.41,90.32Z" fill="#a7aece"/>
  </g>
</svg>